#!OML:ASF I:\Actors\actors\Patient Classification 2\Patient 1\Session 1\actor1.ASF
:FULLY-SPECIFIED
:DEGREES
380
root -0.370807 18.6424 6.3802 2.62936 -18.2901 -4.61129
lowerback 4.05131 -2.72665 -0.805932
upperback -1.94817 -3.64129 1.25327
thorax -4.14785 -1.77081 2.01708
lowerneck 10.2691 -22.6474 -17.4244
upperneck -0.442044 -32.9008 21.1681
head 4.62874 -16.8371 6.80176
rclavicle 3.72721e-015 -5.56597e-015
rhumerus 26.5445 7.80529 -69.5216
rradius 88.5871
rwrist 0.879389
rhand -27.8494 -38.324
rfingers 7.12502
rthumb -1.24044 -68.3001
lclavicle 3.72721e-015 -5.56597e-015
lhumerus -53.0171 -0.793474 87.3622
lradius 47.9072
lwrist -0.515826
lhand -5.05422 -25.6181
lfingers 7.12502
lthumb 20.7413 3.29348
rfemur 0 0 0
rtibia 0
rfoot 0 0
rtoes 0
lfemur 0.816647 -1.12937 -13.0093
ltibia 21.5134
lfoot -31.1378 20.6835
ltoes -51.7875
381
root -0.37344 18.6429 6.38437 2.72611 -18.2073 -4.65798
lowerback 4.06264 -2.70729 -0.775246
upperback -1.95218 -3.61337 1.26133
thorax -4.16085 -1.75748 2.0071
lowerneck 10.3156 -22.578 -17.4414
upperneck -0.545689 -32.7991 21.2309
head 4.58616 -16.7941 6.85022
rclavicle -6.69283e-014 9.54166e-015
rhumerus 26.8848 7.20828 -70.1905
rradius 89.1328
rwrist 1.4279
rhand -28.9576 -37.5902
rfingers 7.12502
rthumb -2.3108 -67.5575
lclavicle -6.69283e-014 9.54166e-015
lhumerus -52.9792 -0.865331 87.3527
lradius 48.0144
lwrist -0.380739
lhand -5.09958 -25.6741
lfingers 7.12502
lthumb 20.6977 3.24225
rfemur 0 0 0
rtibia 0
rfoot 0 0
rtoes 0
lfemur 0.72147 -1.21277 -12.9615
ltibia 21.5289
lfoot -31.1325 20.7253
ltoes -51.8375
382
root -0.376739 18.6436 6.38872 2.82974 -18.1109 -4.7234
lowerback 4.09623 -2.70108 -0.743489
upperback -1.98225 -3.60203 1.2947
thorax -4.21135 -1.75153 2.02603
lowerneck 10.3216 -22.5872 -17.4195
upperneck -0.572594 -32.7891 21.1066
head 4.54837 -16.7884 6.82266
rclavicle 4.1546e-014 -2.38542e-015
rhumerus 25.6618 6.57962 -71.3515
rradius 90.6372
rwrist 1.94035
rhand -30.5604 -36.0974
rfingers 7.12502
rthumb -3.85868 -66.0422
lclavicle 4.1546e-014 -2.38542e-015
lhumerus -52.983 -0.859588 87.3484
lradius 48.1158
lwrist -0.293261
lhand -5.14842 -25.7673
lfingers 7.12502
lthumb 20.6508 3.15408
rfemur 0 0 0
rtibia 0
rfoot 0 0
rtoes 0
lfemur 0.62841 -1.39834 -12.9038
ltibia 21.5362
lfoot -31.1973 20.7665
ltoes -51.717
383
root -0.380098 18.6442 6.39319 2.8974 -18.0389 -4.77205
lowerback 4.15603 -2.7175 -0.729146
upperback -2.02544 -3.62153 1.3382
thorax -4.28747 -1.75989 2.06934
lowerneck 10.4076 -22.5867 -17.442
upperneck -0.683707 -32.7736 21.0403
head 4.48976 -16.7871 6.82844
rclavicle -8.84405e-014 -1.90833e-014
rhumerus 25.4097 6.12952 -72.368
rradius 91.2177
rwrist 2.3323
rhand -32.7324 -34.2527
rfingers 7.12502
rthumb -5.95586 -64.149
lclavicle -8.84405e-014 -1.90833e-014
lhumerus -53.0184 -0.779626 87.3427
lradius 48.1929
lwrist -0.2244
lhand -5.25172 -25.8381
lfingers 7.12502
lthumb 20.5515 3.09409
rfemur 0 0 0
rtibia 0
rfoot 0 0
rtoes 0
lfemur 0.578968 -1.57075 -12.8656
ltibia 21.538
lfoot -31.3188 20.8028
ltoes -51.6363
384
root -0.383045 18.644 6.39855 2.93135 -17.9796 -4.76178
lowerback 4.18047 -2.7473 -0.764843
upperback -2.0626 -3.66232 1.36911
thorax -4.3342 -1.77798 2.12693
lowerneck 10.4883 -22.5764 -17.4871
upperneck -0.743931 -32.7585 20.9942
head 4.45498 -16.7848 6.83714
rclavicle -4.28008e-014 7.15625e-015
rhumerus 25.2234 5.80994 -73.2486
rradius 91.4933
rwrist 3.05222
rhand -34.9277 -32.5141
rfingers 7.12502
rthumb -8.07504 -62.3398
lclavicle -4.28008e-014 7.15625e-015
lhumerus -53.0509 -0.709185 87.3491
lradius 48.2322
lwrist -0.151465
lhand -5.31942 -25.7983
lfingers 7.12502
lthumb 20.4865 3.14087
rfemur 0 0 0
rtibia 0
rfoot 0 0
rtoes 0
lfemur 0.554384 -1.61495 -12.8733
ltibia 21.5319
lfoot -31.35 20.8183
ltoes -51.7361
385
root -0.384325 18.6438 6.40551 2.95899 -17.9337 -4.74273
lowerback 4.1576 -2.77922 -0.782322
upperback -2.08515 -3.70516 1.39098
thorax -4.34049 -1.79832 2.16192
lowerneck 10.4733 -22.5899 -17.4898
upperneck -0.70133 -32.7719 20.8982
head 4.45503 -16.7877 6.80701
rclavicle 2.59973e-014 1.98785e-015
rhumerus 25.1807 5.64497 -73.7093
rradius 91.4359
rwrist 4.08462
rhand -36.634 -32.1347
rfingers 7.12502
rthumb -9.72152 -61.8903
lclavicle 2.59973e-014 1.98785e-015
lhumerus -53.0716 -0.700027 87.3923
lradius 48.2458
lwrist -0.0965018
lhand -5.4273 -25.8301
lfingers 7.12502
lthumb 20.3828 3.12023
rfemur 0 0 0
rtibia 0
rfoot 0 0
rtoes 0
lfemur 0.542492 -1.67439 -12.9026
ltibia 21.5156
lfoot -31.3548 20.8535
ltoes -51.7857
386
root -0.383983 18.6445 6.41244 2.9873 -17.9117 -4.72952
lowerback 4.1111 -2.81264 -0.788918
upperback -2.0958 -3.74929 1.41335
thorax -4.32157 -1.82001 2.18958
lowerneck 10.4499 -22.5851 -17.4803
upperneck -0.671038 -32.7609 20.8498
head 4.45523 -16.7795 6.79207
rclavicle -6.08157e-015 -1.59028e-015
rhumerus 25.3117 5.6635 -73.6516
rradius 91.1563
rwrist 5.2542
rhand -37.2439 -33.2721
rfingers 7.12502
rthumb -10.31 -62.9994
lclavicle -6.08157e-015 -1.59028e-015
lhumerus -53.0614 -0.747566 87.4713
lradius 48.1776
lwrist -0.115654
lhand -5.53785 -25.8355
lfingers 7.12502
lthumb 20.2766 3.12608
rfemur 0 0 0
rtibia 0
rfoot 0 0
rtoes 0
lfemur 0.536564 -1.80432 -12.9488
ltibia 21.4945
lfoot -31.4251 20.9341
ltoes -51.7681
387
root -0.384034 18.6452 6.41816 3.00076 -17.9188 -4.7097
lowerback 4.04232 -2.84718 -0.826415
upperback -2.09018 -3.79715 1.42485
thorax -4.27165 -1.84334 2.22145
lowerneck 10.4502 -22.5407 -17.4507
upperneck -0.637773 -32.703 20.8579
head 4.4519 -16.7512 6.80205
rclavicle 1.64743e-014 1.98785e-015
rhumerus 25.5571 5.76079 -73.312
rradius 90.7832
rwrist 6.02746
rhand -35.8162 -34.7424
rfingers 7.12502
rthumb -8.93245 -64.5333
lclavicle 1.64743e-014 1.98785e-015
lhumerus -53.0212 -0.828529 87.5277
lradius 48.0593
lwrist -0.197091
lhand -5.62475 -25.7742
lfingers 7.12502
lthumb 20.193 3.19622
rfemur 0 0 0
rtibia 0
rfoot 0 0
rtoes 0
lfemur 0.546601 -1.89041 -12.9953
ltibia 21.4775
lfoot -31.5248 20.9976
ltoes -51.7219
388
root -0.384238 18.6465 6.42359 3.02465 -17.9584 -4.7288
lowerback 3.93366 -2.87676 -0.822353
upperback -2.06259 -3.83611 1.42992
thorax -4.17976 -1.86422 2.21952
lowerneck 10.3204 -22.5782 -17.3007
upperneck -0.503016 -32.7351 20.7648
head 4.47748 -16.7557 6.73911
rclavicle 1.19892e-014 9.14409e-015
rhumerus 26.2631 5.86471 -72.8535
rradius 90.0803
rwrist 5.70881
rhand -32.1553 -35.5279
rfingers 7.12502
rthumb -5.39872 -65.4392
lclavicle 1.19892e-014 9.14409e-015
lhumerus -52.9266 -0.940083 87.5593
lradius 47.9682
lwrist -0.227921
lhand -5.68917 -25.7447
lfingers 7.12502
lthumb 20.1311 3.23232
rfemur 0 0 0
rtibia 0
rfoot 0 0
rtoes 0
lfemur 0.561553 -1.93144 -12.9956
ltibia 21.4661
lfoot -31.5969 21.0471
ltoes -51.6409
